<?xml version="1.0" standalone="no"?><svg width="637.5" height="954.30029296875" viewBox="4864.33984375 -13370.830322265625 637.5 954.30029296875" xmlns="http://www.w3.org/2000/svg" xmlns:xlink="http://www.w3.org/1999/xlink"><style>line.bg { stroke: rgba(3, 148, 172, 0.7); stroke-width: 1; }circle.bg { fill: rgba(100, 220, 240, 0.7); }line.bg-sub { stroke: rgba(140, 240, 240, 0.5); stroke-width: 1; }g.u rect, g.u path, g.u circle { fill: none; stroke-width: 2; stroke-linejoin: round; }pattern line { vector-effect: non-scaling-stroke; }.zoomed-out pattern line { vector-effect: none; }text { stroke-width: 0px; font-family: sans-serif; }text tspan { white-space: pre; }.ui-dark { background: rgb(51, 51, 51); }.ui-dark line.bg { stroke: rgba(172, 232, 242, 0.57); stroke-width: 1; }.ui-dark circle.bg { fill: rgba(100, 220, 240, 0.3); }.ui-dark line.bg-sub { stroke: rgba(140, 240, 240, 0.1); stroke-width: 1; }rect.marquee { fill: rgba(234, 255, 231, 0.3); stroke: rgb(98, 137, 95); stroke-width: 1; stroke-dasharray: 4; vector-effect: non-scaling-stroke; }rect.highlight { fill: blue; opacity: 0.5; }.bg rect { stroke: rgba(3, 148, 172, 0.7); stroke-width: 1; }</style><defs class="ic"></defs><defs><marker id="arrowhead" viewBox="0 0 15 15" refX="5" refY="5" markerWidth="5" markerHeight="5" orient="auto-start-reverse"><path stroke="context-stroke" fill="context-stroke" d="M 0 0 L 10 5 L 0 10 z"></path></marker></defs><defs xmlns="http://www.w3.org/2000/svg"><pattern id="pattern_bg" viewBox="0 0 60 60" width="0.05084745762711865" height="0.08941877794336811" patternTransform="scale(0.5 0.5) translate(-3936.5898511150635 13554.283469250306)"><line class="bg" x1="0" y1="0" x2="60" y2="0"/><line class="bg" x1="0" y1="0" y2="60" x2="0"/><line class="bg-sub" x1="0" y1="15" x2="60" y2="15"/><line class="bg-sub" y1="0" x1="15" y2="60" x2="15"/><line class="bg-sub" x1="0" y1="30" x2="60" y2="30"/><line class="bg-sub" y1="0" x1="30" y2="60" x2="30"/><line class="bg-sub" x1="0" y1="45" x2="60" y2="45"/><line class="bg-sub" y1="0" x1="45" y2="60" x2="45"/></pattern></defs>
<g xmlns="http://www.w3.org/2000/svg" class="bg"><rect x="3936.5898511150635" y="-13554.283469250306" width="2360" height="1342" style="fill: url(&quot;#pattern_bg&quot;);"/></g><g xmlns="http://www.w3.org/2000/svg" class="u current" data-layer="Layer 1" style="visibility: visible;"><path class="" stroke="rgba(100, 160, 125, 1)" data-hint="freehand" id="84gme2s6" d="M 4974.59 -12958.78 L4974.59 -12958.78 L4974.26 -12958.78 L4974.09 -12958.78 L4973.79 -12958.98 L4973.39 -12959.18 L4972.99 -12959.38 L4972.59 -12959.58 L4972.19 -12959.78 L4971.99 -12959.78 L4971.79 -12959.78 L4971.79 -12959.78 L4972.59 -12959.78 L4973.39 -12959.78 L4974.79 -12959.78 L4976.19 -12959.78 L4978.39 -12959.78 L4979.99 -12959.78 L4982.59 -12959.78 L4984.59 -12959.78 L4987.79 -12959.78 L4989.99 -12959.78 L4993.19 -12959.78 L4995.39 -12959.78 L4998.59 -12959.78 L5000.59 -12959.78 L5003.39 -12959.78 L5005.19 -12959.78 L5007.79 -12959.58 L5009.39 -12959.38 L5011.79 -12959.18 L5013.39 -12958.98 L5015.99 -12958.78 L5017.79 -12958.78 L5020.59 -12958.98 L5022.59 -12959.18 L5025.59 -12959.38 L5027.59 -12959.58 L5030.39 -12959.98 L5032.19 -12960.18 L5034.79 -12960.38 L5036.39 -12960.58 L5038.79 -12960.78 L5040.39 -12960.78 L5042.79 -12960.58 L5044.39 -12960.38 L5046.79 -12960.18 L5048.39 -12959.98 L5050.79 -12959.78 L5052.39 -12959.78 L5054.79 -12959.78 L5056.39 -12959.78 L5058.59 -12959.78 L5059.99 -12959.78 L5062.19 -12959.78 L5063.59 -12959.78 L5065.59 -12959.98 L5066.99 -12960.18 L5069.19 -12960.38 L5070.59 -12960.58 L5072.59 -12960.78 L5073.99 -12960.78 L5075.99 -12960.78 L5077.19 -12960.78 L5078.99 -12960.98 L5080.19 -12961.18 L5081.79 -12961.38 L5082.79 -12961.58 L5084.39 -12961.78 L5085.39 -12961.78 L5086.79 -12961.78 L5087.79 -12961.78 L5089.39 -12961.98 L5090.39 -12962.18 L5091.79 -12962.38 L5092.79 -12962.58 L5093.99 -12962.78 L5094.59 -12962.78 L5095.59 -12962.78 L5096.19 -12962.78 L5097.19 -12962.78 L5097.99 -12962.78 L5099.19 -12962.78 L5099.99 -12962.78 L5100.99 -12962.78 L5101.59 -12962.78 L5102.39 -12962.78 L5102.79 -12962.78 L5103.19 -12962.78 L5103.39 -12962.78 L5103.59 -12962.78 L5103.59 -12962.78 L5103.59 -12962.58 L5103.59 -12962.38 L5103.59 -12961.98 L5103.59 -12961.58 L5103.59 -12960.98 L5103.59 -12959.98 L5103.59 -12958.38 L5103.59 -12955.98 L5103.59 -12952.38 L5103.79 -12947.78 L5103.99 -12942.58 L5104.19 -12936.98 L5104.39 -12931.18 L5104.59 -12925.58 L5104.59 -12920.38 L5104.39 -12915.58 L5104.19 -12911.78 L5103.99 -12908.18 L5103.79 -12905.58 L5103.79 -12902.98 L5103.99 -12901.18 L5104.19 -12898.58 L5104.39 -12896.98 L5104.59 -12894.58 L5104.59 -12892.98 L5104.59 -12890.78 L5104.59 -12889.38 L5104.59 -12887.38 L5104.59 -12886.18 L5104.59 -12884.18 L5104.59 -12882.78 L5104.59 -12880.58 L5104.59 -12878.98 L5104.59 -12876.58 L5104.59 -12874.98 L5104.59 -12872.58 L5104.59 -12870.98 L5104.79 -12868.78 L5104.99 -12867.38 L5105.19 -12865.38 L5105.39 -12864.18 L5105.79 -12862.38 L5105.99 -12861.18 L5106.19 -12859.38 L5106.39 -12858.18 L5106.59 -12856.38 L5106.59 -12855.18 L5106.59 -12853.38 L5106.59 -12852.18 L5106.59 -12850.38 L5106.59 -12849.18 L5106.59 -12847.58 L5106.59 -12846.58 L5106.59 -12845.38 L5106.59 -12844.78 L5106.59 -12844.18 L5106.59 -12843.78 L5106.59 -12843.38 L5106.59 -12843.18 L5106.59 -12842.98 L5106.59 -12842.78 L5106.59 -12842.78 L5106.59 -12842.78 L5106.59 -12842.78 L5106.39 -12842.78 L5106.19 -12842.78 L5105.79 -12842.78 L5105.19 -12842.78 L5104.39 -12842.58 L5103.59 -12842.38 L5102.59 -12841.98 L5101.79 -12841.38 L5101.59 -12840.78 L5101.99 -12840.38 L5102.99 -12839.98 L5104.79 -12839.78 L5107.39 -12839.78 L5110.39 -12839.98 L5113.79 -12840.18 L5117.59 -12840.38 L5120.79 -12840.58 L5123.79 -12840.78 L5125.99 -12840.78 L5128.19 -12840.58 L5129.59 -12840.38 L5131.79 -12840.18 L5133.39 -12839.98 L5135.59 -12839.58 L5136.99 -12839.38 L5139.19 -12839.18 L5140.59 -12838.98 L5142.79 -12838.78 L5144.39 -12838.78 L5146.79 -12838.78 L5148.39 -12838.78 L5150.79 -12838.98 L5152.39 -12839.18 L5154.79 -12839.38 L5156.39 -12839.58 L5158.59 -12839.78 L5159.99 -12839.78 L5161.99 -12839.78 L5163.19 -12839.78 L5165.19 -12839.78 L5166.59 -12839.78 L5168.59 -12839.98 L5169.99 -12840.18 L5171.99 -12840.38 L5173.19 -12840.58 L5174.99 -12840.78 L5176.19 -12840.78 L5177.99 -12840.78 L5179.19 -12840.78 L5180.79 -12840.58 L5181.79 -12840.38 L5183.59 -12840.18 L5184.79 -12839.98 L5186.59 -12839.78 L5187.99 -12839.78 L5189.99 -12839.78 L5191.19 -12839.78 L5192.99 -12839.78 L5194.19 -12839.78 L5195.99 -12839.78 L5197.19 -12839.78 L5198.99 -12839.78 L5200.19 -12839.78 L5202.19 -12839.78 L5203.59 -12839.78 L5205.79 -12839.78 L5207.39 -12839.78 L5209.79 -12839.78 L5211.39 -12839.78 L5213.79 -12839.98 L5215.39 -12840.18 L5217.59 -12840.38 L5218.99 -12840.58 L5221.19 -12840.78 L5222.59 -12840.78 L5224.59 -12840.78 L5225.99 -12840.78 L5227.99 -12840.58 L5229.19 -12840.38 L5230.79 -12840.18 L5231.79 -12839.98 L5233.39 -12839.78 L5234.39 -12839.78 L5235.99 -12839.78 L5237.19 -12839.78 L5238.99 -12839.58 L5240.19 -12839.38 L5241.79 -12839.18 L5242.79 -12838.98 L5244.39 -12838.78 L5245.39 -12838.78 L5246.99 -12838.78 L5248.19 -12838.78 L5249.99 -12838.78 L5251.19 -12838.78 L5252.99 -12838.78 L5254.19 -12838.78 L5255.99 -12838.78 L5257.19 -12838.78 L5258.79 -12838.78 L5259.79 -12838.78 L5261.19 -12838.98 L5261.99 -12839.18 L5262.99 -12839.38 L5263.59 -12839.58 L5264.19 -12839.78 L5264.39 -12839.78 L5264.59 -12839.78 L5264.59 -12839.78 L5264.59 -12839.78 L5264.59 -12839.78 L5264.59 -12839.78 L5264.79 -12839.78 L5264.99 -12839.78 L5265.39 -12839.78 L5265.79 -12839.78 L5266.39 -12839.78 L5266.79 -12839.78 L5267.79 -12839.98 L5268.59 -12840.18 L5269.79 -12840.38 L5270.79 -12840.58 L5271.99 -12840.78 L5272.59 -12840.78 L5273.39 -12840.98 L5273.79 -12841.18 L5274.39 -12841.38 L5274.79 -12841.58 L5275.19 -12841.78 L5275.39 -12841.78 L5275.59 -12841.78 L5275.59 -12841.78 L5275.59 -12841.78 L5275.39 -12841.78 L5275.19 -12841.78 L5274.99 -12841.78 L5274.79 -12841.78 L5274.59 -12841.78 L5274.79 -12841.98 L5274.99 -12842.18 L5275.39 -12842.58 L5275.79 -12842.98 L5276.39 -12843.58 L5276.79 -12843.98 L5277.59 -12844.78 L5278.19 -12845.38 L5279.19 -12846.38 L5279.99 -12847.18 L5281.19 -12848.58 L5281.99 -12849.58 L5283.39 -12851.18 L5284.39 -12852.38 L5285.99 -12854.18 L5287.19 -12855.38 L5288.79 -12856.98 L5289.79 -12857.98 L5290.99 -12859.38 L5291.59 -12860.18 L5292.59 -12861.58 L5293.19 -12862.58 L5294.39 -12863.98 L5295.39 -12864.98 L5296.79 -12866.38 L5297.79 -12867.18 L5298.99 -12868.38 L5299.59 -12869.18 L5300.59 -12870.38 L5301.19 -12871.18 L5302.19 -12872.58 L5302.99 -12873.58 L5304.19 -12874.98 L5304.99 -12875.98 L5305.99 -12877.38 L5306.59 -12878.18 L5307.59 -12879.38 L5308.19 -12880.18 L5308.99 -12881.38 L5309.59 -12882.18 L5310.39 -12883.38 L5310.79 -12884.18 L5311.39 -12885.18 L5311.79 -12885.78 L5312.39 -12886.78 L5312.79 -12887.38 L5313.39 -12888.38 L5313.79 -12889.18 L5314.39 -12890.18 L5314.79 -12890.78 L5315.39 -12891.58 L5315.79 -12891.98 L5316.39 -12892.58 L5316.79 -12892.98 L5317.39 -12893.78 L5317.79 -12894.38 L5318.39 -12895.18 L5318.79 -12895.78 L5319.39 -12896.58 L5319.79 -12896.98 L5320.39 -12897.58 L5320.79 -12897.98 L5321.39 -12898.78 L5321.79 -12899.38 L5322.39 -12900.38 L5322.79 -12901.18 L5323.39 -12902.38 L5323.79 -12903.18 L5324.39 -12904.38 L5324.79 -12905.18 L5325.59 -12906.18 L5326.19 -12906.78 L5326.99 -12907.78 L5327.59 -12908.38 L5328.39 -12909.38 L5328.79 -12910.18 L5329.59 -12911.58 L5330.19 -12912.58 L5331.19 -12913.98 L5331.99 -12914.98 L5332.99 -12916.58 L5333.59 -12917.58 L5334.39 -12918.98 L5334.79 -12919.98 L5335.59 -12921.38 L5336.19 -12922.18 L5336.99 -12923.38 L5337.59 -12924.18 L5338.39 -12925.38 L5338.79 -12926.18 L5339.59 -12927.38 L5340.19 -12928.18 L5340.99 -12929.38 L5341.59 -12930.18 L5342.59 -12931.58 L5343.19 -12932.58 L5343.99 -12933.98 L5344.59 -12934.98 L5345.39 -12936.38 L5345.79 -12937.18 L5346.39 -12938.38 L5346.79 -12939.18 L5347.59 -12940.58 L5348.19 -12941.58 L5348.99 -12943.18 L5349.59 -12944.38 L5350.59 -12945.98 L5351.19 -12946.98 L5351.99 -12948.58 L5352.59 -12949.58 L5353.59 -12951.18 L5354.19 -12952.38 L5354.99 -12954.18 L5355.59 -12955.38 L5356.59 -12957.38 L5357.19 -12958.78 L5358.19 -12960.78 L5358.99 -12962.18 L5360.19 -12964.38 L5360.99 -12965.78 L5361.99 -12967.58 L5362.59 -12968.78 L5363.39 -12970.58 L5363.79 -12971.58 L5364.39 -12973.18 L5364.79 -12974.38 L5365.59 -12976.18 L5366.19 -12977.38 L5366.99 -12979.38 L5367.59 -12980.78 L5368.59 -12982.98 L5369.19 -12984.58 L5369.99 -12986.98 L5370.59 -12988.58 L5371.39 -12990.78 L5371.79 -12992.18 L5372.59 -12994.38 L5373.19 -12995.78 L5373.99 -12997.78 L5374.59 -12999.18 L5375.39 -13001.38 L5375.79 -13002.78 L5376.39 -13004.98 L5376.79 -13006.58 L5377.39 -13008.98 L5377.79 -13010.58 L5378.39 -13013.18 L5378.79 -13014.98 L5379.39 -13017.78 L5379.79 -13019.78 L5380.39 -13022.58 L5380.79 -13024.38 L5381.59 -13026.98 L5382.19 -13028.58 L5382.99 -13031.18 L5383.59 -13032.98 L5384.59 -13035.78 L5385.19 -13037.78 L5385.99 -13040.58 L5386.59 -13042.38 L5387.39 -13045.18 L5387.79 -13046.98 L5388.39 -13049.78 L5388.79 -13051.78 L5389.39 -13054.78 L5389.79 -13056.78 L5390.39 -13059.98 L5390.79 -13062.18 L5391.39 -13065.18 L5391.79 -13067.18 L5392.39 -13070.18 L5392.79 -13071.98 L5393.19 -13074.78 L5393.39 -13076.78 L5393.59 -13079.58 L5393.59 -13081.38 L5393.79 -13083.98 L5393.99 -13085.58 L5394.19 -13087.98 L5394.39 -13089.58 L5394.79 -13091.98 L5394.99 -13093.58 L5395.19 -13096.38 L5395.39 -13098.38 L5395.59 -13101.38 L5395.59 -13103.58 L5395.39 -13106.78 L5395.19 -13108.78 L5394.79 -13111.78 L5394.39 -13113.78 L5393.59 -13116.98 L5392.99 -13119.18 L5392.19 -13122.38 L5391.59 -13124.58 L5390.59 -13127.98 L5389.99 -13130.18 L5388.79 -13133.38 L5387.79 -13135.58 L5386.39 -13138.78 L5385.39 -13140.78 L5383.59 -13143.78 L5382.39 -13145.78 L5380.59 -13148.58 L5379.19 -13150.38 L5376.79 -13153.18 L5375.19 -13154.98 L5372.59 -13157.58 L5370.59 -13159.38 L5367.59 -13162.18 L5365.59 -13163.98 L5362.39 -13166.58 L5360.19 -13168.38 L5356.59 -13171.18 L5353.99 -13172.98 L5350.19 -13175.78 L5347.59 -13177.78 L5343.79 -13180.98 L5341.39 -13183.18 L5337.59 -13186.38 L5334.99 -13188.58 L5330.99 -13191.58 L5328.19 -13193.38 L5323.79 -13195.78 L5320.79 -13197.18 L5315.99 -13198.98 L5312.59 -13199.98 L5306.99 -13201.58 L5302.99 -13202.58 L5296.99 -13203.98 L5292.79 -13204.98 L5286.19 -13206.38 L5281.79 -13207.18 L5274.79 -13208.38 L5269.79 -13209.18 L5261.99 -13210.18 L5256.59 -13210.78 L5248.39 -13211.38 L5242.79 -13211.58 L5234.19 -13211.78 L5228.39 -13211.78 L5219.59 -13211.38 L5213.59 -13210.98 L5204.59 -13210.38 L5198.59 -13209.78 L5189.79 -13208.58 L5183.99 -13207.78 L5175.39 -13206.38 L5169.79 -13205.18 L5161.39 -13203.38 L5155.79 -13202.18 L5147.19 -13199.98 L5141.39 -13198.38 L5133.19 -13195.98 L5127.79 -13194.18 L5119.99 -13191.38 L5115.19 -13189.58 L5107.79 -13186.38 L5102.79 -13183.98 L5095.39 -13180.38 L5090.39 -13177.78 L5083.19 -13173.78 L5078.59 -13171.18 L5071.79 -13166.98 L5067.39 -13163.98 L5061.39 -13159.58 L5057.59 -13156.58 L5051.99 -13151.98 L5048.59 -13148.98 L5043.39 -13144.18 L5039.79 -13140.78 L5034.99 -13135.58 L5031.99 -13131.98 L5027.79 -13126.58 L5025.39 -13122.98 L5021.99 -13117.58 L5019.79 -13113.98 L5016.59 -13108.78 L5014.59 -13105.38 L5011.79 -13100.18 L5009.99 -13096.78 L5007.19 -13091.58 L5005.39 -13087.98 L5002.99 -13082.58 L5001.39 -13078.98 L4998.99 -13073.38 L4997.59 -13069.58 L4995.39 -13063.98 L4993.79 -13060.18 L4991.79 -13054.98 L4990.59 -13051.78 L4988.99 -13046.98 L4988.19 -13043.98 L4986.99 -13039.38 L4986.19 -13036.18 L4985.19 -13031.58 L4984.59 -13028.58 L4983.79 -13023.98 L4983.39 -13020.98 L4982.99 -13016.78 L4982.79 -13013.98 L4982.59 -13010.18 L4982.59 -13007.98 L4982.39 -13004.58 L4982.19 -13002.38 L4981.99 -12998.78 L4981.79 -12996.18 L4981.59 -12992.38 L4981.59 -12989.78 L4981.39 -12986.18 L4981.19 -12983.98 L4980.79 -12980.78 L4980.39 -12978.78 L4979.79 -12975.78 L4979.39 -12973.78 L4978.79 -12970.98 L4978.39 -12969.18 L4977.79 -12966.38 L4977.39 -12964.58 L4977.19 -12962.18 L4977.19 -12960.58 L4977.59 -12958.78 L4978.19 -12957.98 " style="fill: rgba(0, 0, 0, 0); stroke-width: 2; stroke-linecap: round; stroke-linejoin: round;" data-mut=""/><path class="" stroke="rgba(100, 160, 125, 1)" data-hint="freehand" id="hfu7l60m" d="M 4978.59 -12919.78 L4978.59 -12919.78 L4978.26 -12920.12 L4978.09 -12920.28 L4977.79 -12920.58 L4977.39 -12920.98 L4976.79 -12921.58 L4976.39 -12922.18 L4975.79 -12922.78 L4975.39 -12922.98 L4975.19 -12922.78 L4975.59 -12921.78 L4976.59 -12919.98 L4978.59 -12917.78 L4981.79 -12915.38 L4985.99 -12913.38 L4990.99 -12912.18 L4996.59 -12911.98 L5002.59 -12912.78 L5008.19 -12914.58 L5013.19 -12916.98 L5016.99 -12919.38 L5019.59 -12921.18 L5020.79 -12922.18 L5020.99 -12922.38 L5020.39 -12921.78 " style="fill: rgba(0, 0, 0, 0); stroke-width: 2; stroke-linecap: round; stroke-linejoin: round;" data-mut=""/><path class="" stroke="rgba(100, 160, 125, 1)" data-hint="freehand" id="5beh69wk" d="M 4985.59 -12910.78 L4985.59 -12910.28 L4985.59 -12909.45 L4985.59 -12908.03 L4985.59 -12905.98 L4985.79 -12901.78 L4985.99 -12897.78 L4986.19 -12892.98 L4986.39 -12888.98 L4986.59 -12884.98 L4986.59 -12882.58 L4986.59 -12878.98 L4986.59 -12876.58 L4986.59 -12873.38 L4986.59 -12871.38 L4986.39 -12868.78 L4986.19 -12867.38 L4985.99 -12865.18 L4985.79 -12863.78 L4985.59 -12861.58 L4985.59 -12859.98 L4985.79 -12857.58 L4985.99 -12855.98 L4986.19 -12853.78 L4986.39 -12852.38 L4986.59 -12850.18 L4986.59 -12848.78 L4986.59 -12846.98 L4986.59 -12845.78 L4986.59 -12844.18 L4986.59 -12843.38 L4986.59 -12842.58 L4986.59 -12842.18 L4986.59 -12841.78 L4986.79 -12841.78 L4986.99 -12841.78 L4987.39 -12841.98 L4987.79 -12842.18 L4988.39 -12842.58 L4988.79 -12842.98 L4989.39 -12843.58 L4989.79 -12843.98 L4990.59 -12844.58 L4991.19 -12844.98 L4992.19 -12845.38 L4993.59 -12845.78 L4995.59 -12846.18 L4997.59 -12846.58 L4999.99 -12847.18 L5002.39 -12847.78 L5004.19 -12848.38 L5005.39 -12848.98 L5006.19 -12849.38 L5006.39 -12849.58 " style="fill: rgba(0, 0, 0, 0); stroke-width: 2; stroke-linecap: round; stroke-linejoin: round;" data-mut=""/><path class="" stroke="rgba(100, 160, 125, 1)" data-hint="freehand" id="n461fepb" d="M 5005.59 -12850.78 L5005.59 -12851.28 L5005.59 -12851.45 L5005.59 -12851.53 L5005.59 -12851.58 L5005.59 -12851.78 L5005.59 -12851.58 L5005.79 -12850.98 L5005.99 -12849.58 L5006.39 -12847.38 L5006.79 -12844.18 L5007.19 -12841.18 L5007.59 -12837.78 L5007.99 -12835.18 L5008.19 -12832.78 L5008.39 -12831.38 L5008.79 -12829.58 L5008.99 -12828.58 L5009.39 -12827.58 L5009.79 -12827.18 L5010.39 -12826.78 L5010.79 -12826.78 L5011.19 -12826.78 L5011.39 -12826.98 L5011.59 -12827.18 L5011.59 -12827.38 L5011.59 -12827.58 L5011.59 -12827.78 L5011.59 -12827.78 L5011.39 -12827.78 L5011.19 -12827.78 L5010.99 -12827.98 L5010.79 -12828.18 L5010.39 -12828.38 L5010.19 -12828.58 L5009.79 -12828.58 L5009.39 -12828.38 L5008.79 -12827.98 L5008.39 -12827.58 L5007.59 -12826.78 L5006.99 -12826.18 L5005.99 -12825.18 L5005.19 -12824.38 L5003.79 -12822.98 L5002.79 -12821.98 L5001.59 -12820.38 L5000.79 -12819.18 L4999.79 -12817.58 L4999.39 -12816.58 L4998.79 -12815.18 L4998.39 -12814.38 L4997.99 -12813.18 L4997.79 -12812.38 L4997.59 -12811.18 L4997.59 -12810.38 L4997.79 -12809.38 L4997.99 -12808.78 L4998.39 -12807.98 L4998.79 -12807.58 L4999.39 -12806.98 L4999.79 -12806.58 L5000.39 -12806.18 L5000.79 -12805.98 L5001.39 -12805.78 L5001.79 -12805.78 L5002.59 -12805.98 L5003.19 -12806.18 L5004.19 -12806.78 L5005.39 -12807.98 L5006.99 -12809.58 L5008.59 -12811.58 L5010.39 -12813.98 L5011.99 -12816.58 L5013.19 -12818.98 L5013.99 -12821.38 L5014.19 -12823.18 L5013.99 -12824.58 L5013.59 -12825.18 L5013.19 -12824.98 L5012.79 -12823.98 L5012.59 -12822.38 L5012.59 -12819.78 L5012.39 -12816.38 L5012.19 -12812.38 L5011.79 -12807.98 L5011.39 -12803.58 L5010.99 -12799.98 L5010.99 -12797.18 L5011.39 -12795.38 L5011.99 -12794.38 L5012.79 -12793.98 L5013.59 -12793.78 L5014.59 -12793.98 L5015.19 -12794.18 L5016.19 -12794.58 L5016.99 -12794.98 L5018.19 -12795.58 L5018.99 -12795.98 L5019.99 -12796.78 L5020.59 -12797.38 L5021.39 -12798.58 L5021.79 -12799.58 L5022.19 -12801.18 L5022.59 -12803.38 L5022.99 -12806.58 L5022.99 -12809.78 L5022.79 -12813.38 L5022.19 -12816.78 L5021.19 -12819.58 L5019.99 -12821.58 L5018.99 -12822.98 L5018.19 -12823.98 L5017.79 -12824.58 L5017.59 -12824.98 L5017.59 -12825.18 L5017.59 -12825.38 L5017.59 -12825.58 L5017.59 -12825.78 L5017.59 -12825.78 L5017.59 -12825.78 L5017.59 -12825.78 L5017.59 -12825.58 L5017.59 -12825.38 L5017.59 -12825.18 L5017.59 -12824.98 L5017.59 -12824.78 L5017.59 -12824.58 L5017.59 -12824.38 L5017.59 -12824.18 L5017.59 -12823.78 L5017.59 -12823.18 L5017.79 -12822.78 L5018.19 -12822.18 L5018.99 -12821.38 L5020.39 -12820.38 L5022.59 -12818.98 L5025.39 -12817.18 L5028.79 -12815.18 L5032.39 -12812.98 L5035.99 -12810.78 L5039.39 -12808.98 L5042.39 -12807.38 L5044.99 -12805.98 L5047.19 -12804.98 L5049.19 -12804.18 L5050.79 -12803.38 L5052.39 -12802.78 L5053.59 -12802.38 L5054.79 -12801.78 L5055.59 -12801.38 L5056.39 -12801.18 L5056.79 -12800.98 L5057.59 -12800.58 L5058.19 -12800.38 L5058.99 -12800.18 L5059.59 -12799.98 L5060.39 -12799.58 L5060.79 -12799.38 L5061.39 -12799.18 L5061.79 -12798.98 L5062.39 -12798.58 L5062.79 -12798.38 L5063.39 -12798.18 L5063.79 -12797.98 L5064.39 -12797.58 L5064.79 -12797.38 L5065.39 -12797.18 L5065.79 -12796.98 L5066.19 -12796.78 L5066.59 -12796.58 L5066.99 -12796.38 L5067.19 -12796.18 L5067.39 -12795.98 L5067.59 -12795.78 L5067.59 -12795.78 L5067.59 -12795.78 L5067.59 -12795.98 L5067.59 -12796.18 L5067.59 -12796.38 L5067.59 -12796.58 " style="fill: rgba(0, 0, 0, 0); stroke-width: 2; stroke-linecap: round; stroke-linejoin: round;" data-mut=""/><path class="" stroke="rgba(100, 160, 125, 1)" data-hint="freehand" id="xm5i4xir" d="M 5107.59 -12844.78 L5107.09 -12843.28 L5106.92 -12841.78 L5106.84 -12840.28 L5106.79 -12838.58 L5106.59 -12835.18 L5106.79 -12831.78 L5106.99 -12828.98 L5107.19 -12825.98 L5107.39 -12823.78 L5107.79 -12821.58 L5107.99 -12819.98 L5108.19 -12817.78 L5108.39 -12816.38 L5108.59 -12814.18 L5108.59 -12812.78 L5108.59 -12810.58 L5108.59 -12808.98 L5108.59 -12806.78 L5108.59 -12805.38 L5108.59 -12803.18 L5108.59 -12801.78 L5108.59 -12799.78 L5108.59 -12798.38 L5108.59 -12796.18 L5108.59 -12794.78 L5108.79 -12792.78 L5108.99 -12791.38 L5109.19 -12789.18 L5109.39 -12787.78 L5109.59 -12785.78 L5109.59 -12784.38 L5109.59 -12782.38 L5109.59 -12781.18 L5109.59 -12779.18 L5109.59 -12777.78 L5109.79 -12775.78 L5109.99 -12774.38 L5110.19 -12772.18 L5110.39 -12770.78 L5110.59 -12768.58 L5110.59 -12766.98 L5110.59 -12764.58 L5110.59 -12762.98 L5110.59 -12760.58 L5110.59 -12758.98 L5110.59 -12756.38 L5110.59 -12754.58 L5110.79 -12751.98 L5110.99 -12750.18 L5111.19 -12747.58 L5111.39 -12745.98 L5111.59 -12743.58 L5111.59 -12741.98 L5111.59 -12739.58 L5111.59 -12737.98 L5111.59 -12735.58 L5111.59 -12733.98 L5111.59 -12731.58 L5111.59 -12729.98 L5111.59 -12727.38 L5111.59 -12725.58 L5111.59 -12722.98 L5111.59 -12721.18 L5111.39 -12718.38 L5111.19 -12716.58 L5110.99 -12714.18 L5110.79 -12712.58 L5110.59 -12710.18 L5110.59 -12708.78 L5110.39 -12706.58 L5110.19 -12704.98 L5109.99 -12702.58 L5109.79 -12700.98 L5109.59 -12698.38 L5109.59 -12696.58 L5109.39 -12693.78 L5109.19 -12691.78 L5108.99 -12688.78 L5108.79 -12686.78 L5108.59 -12683.58 L5108.59 -12681.38 L5108.59 -12678.38 L5108.59 -12676.38 L5108.79 -12673.58 L5108.99 -12671.98 L5109.19 -12669.38 L5109.39 -12667.58 L5109.59 -12664.78 L5109.59 -12662.78 L5109.59 -12659.78 L5109.59 -12657.78 L5109.59 -12654.98 L5109.59 -12653.18 L5109.59 -12650.58 L5109.59 -12648.98 L5109.59 -12646.98 L5109.59 -12645.78 L5109.59 -12643.78 L5109.59 -12642.58 L5109.59 -12640.58 L5109.59 -12638.98 L5109.59 -12636.58 L5109.59 -12634.98 L5109.59 -12632.98 L5109.59 -12631.78 L5109.59 -12629.98 L5109.59 -12628.98 L5109.59 -12627.38 L5109.59 -12626.18 L5109.59 -12624.38 L5109.59 -12623.18 L5109.59 -12621.58 L5109.59 -12620.58 L5109.59 -12619.18 L5109.59 -12618.38 L5109.79 -12616.98 L5109.99 -12615.98 L5110.19 -12614.18 L5110.39 -12612.78 L5110.79 -12610.78 L5110.99 -12609.38 L5111.19 -12607.58 L5111.39 -12606.58 L5111.79 -12604.98 L5111.99 -12603.98 L5112.19 -12602.78 L5112.39 -12601.98 L5112.59 -12600.98 L5112.59 -12600.58 L5112.79 -12599.98 L5112.99 -12599.58 L5113.19 -12598.98 L5113.39 -12598.58 L5113.59 -12597.78 L5113.59 -12597.18 L5113.59 -12596.18 L5113.59 -12595.38 L5113.59 -12594.18 L5113.59 -12593.38 L5113.59 -12592.18 L5113.59 -12591.38 L5113.59 -12590.38 L5113.59 -12589.78 L5113.59 -12588.98 L5113.59 -12588.58 L5113.59 -12587.98 L5113.59 -12587.58 L5113.59 -12586.98 L5113.59 -12586.58 L5113.59 -12585.98 L5113.59 -12585.58 L5113.59 -12584.98 L5113.59 -12584.58 L5113.59 -12583.78 L5113.59 -12583.18 L5113.59 -12582.38 L5113.59 -12581.78 L5113.59 -12580.98 L5113.59 -12580.58 L5113.59 -12579.78 L5113.59 -12579.18 L5113.59 -12578.38 L5113.59 -12577.78 L5113.59 -12577.18 L5113.59 -12576.78 L5113.59 -12576.38 L5113.59 -12576.18 L5113.59 -12575.98 L5113.59 -12575.78 L5113.59 -12575.58 " style="fill: rgba(0, 0, 0, 0); stroke-width: 2; stroke-linecap: round; stroke-linejoin: round;" data-mut=""/><path class="" stroke="rgba(100, 160, 125, 1)" data-hint="freehand" id="rxdegs6c" d="M 4970.59 -12958.78 L4971.09 -12958.28 L4972.26 -12958.12 L4974.09 -12958.28 L4975.19 -12958.38 L4978.39 -12958.58 L4981.39 -12958.98 L4984.99 -12959.58 L4987.59 -12959.98 L4991.59 -12960.38 L4994.19 -12960.58 L4998.19 -12960.98 L5000.99 -12961.18 L5004.99 -12961.38 L5007.59 -12961.58 L5011.79 -12961.98 L5014.59 -12962.18 L5018.99 -12962.38 L5022.19 -12962.58 L5026.59 -12962.78 L5029.39 -12962.78 L5033.79 -12962.78 L5036.59 -12962.78 L5040.99 -12962.78 L5044.19 -12962.78 L5048.79 -12962.78 L5051.79 -12962.78 L5056.39 -12962.78 L5059.39 -12962.78 L5063.99 -12962.78 L5067.19 -12962.78 L5071.79 -12962.78 L5074.79 -12962.78 L5079.39 -12962.78 L5082.39 -12962.78 L5086.99 -12962.98 L5090.19 -12963.18 L5094.99 -12963.38 L5098.19 -12963.58 L5102.99 -12963.98 L5106.19 -12964.18 L5110.99 -12964.38 L5114.19 -12964.58 L5118.59 -12964.78 L5121.39 -12964.78 L5125.79 -12964.78 L5128.59 -12964.78 L5133.19 -12964.78 L5136.59 -12964.78 L5141.39 -12964.98 L5144.59 -12965.18 L5149.19 -12965.38 L5151.99 -12965.58 L5156.39 -12965.78 L5159.39 -12965.78 L5163.99 -12965.78 L5167.19 -12965.78 L5172.19 -12965.98 L5175.59 -12966.18 L5180.59 -12966.58 L5183.99 -12966.98 L5189.19 -12967.38 L5192.59 -12967.58 L5197.59 -12967.78 L5200.99 -12967.78 L5205.79 -12967.78 L5208.79 -12967.78 L5213.59 -12967.78 L5216.79 -12967.78 L5221.79 -12967.78 L5225.39 -12967.78 L5230.79 -12967.78 L5234.39 -12967.78 L5239.79 -12967.78 L5243.39 -12967.78 L5248.59 -12967.78 L5251.99 -12967.78 L5256.99 -12967.78 L5260.19 -12967.78 L5265.19 -12967.78 L5268.59 -12967.78 L5273.79 -12967.78 L5277.39 -12967.78 L5282.59 -12967.78 L5285.99 -12967.78 L5290.99 -12967.78 L5294.19 -12967.78 L5298.99 -12967.78 L5302.19 -12967.78 L5306.99 -12967.78 L5310.19 -12967.78 L5314.99 -12967.78 L5318.19 -12967.78 L5323.19 -12967.98 L5326.59 -12968.18 L5331.39 -12968.38 L5334.59 -12968.58 L5338.99 -12968.78 L5341.59 -12968.78 L5345.39 -12968.78 L5347.79 -12968.78 L5351.19 -12968.78 L5353.39 -12968.78 L5356.39 -12968.78 L5358.19 -12968.78 L5360.39 -12968.78 L5361.59 -12968.78 L5362.79 -12968.78 L5362.79 -12968.78 L5362.79 -12968.78 " style="fill: rgba(0, 0, 0, 0); stroke-width: 2; stroke-linecap: round; stroke-linejoin: round;" data-mut=""/><path class="" stroke="rgba(100, 160, 125, 1)" data-hint="freehand" id="s2ooq8pi" d="M 4974.59 -12963.78 L4973.59 -12963.78 L4972.92 -12963.78 L4972.34 -12963.78 L4971.99 -12963.98 L4971.59 -12964.38 L4972.19 -12964.78 L4973.79 -12965.18 L4976.59 -12965.58 L4980.59 -12965.78 L4985.59 -12965.78 L4991.39 -12965.78 L4997.79 -12965.78 L5004.59 -12965.98 L5011.59 -12966.18 L5018.59 -12966.38 L5025.39 -12966.58 L5032.19 -12966.78 L5039.19 -12966.98 L5046.39 -12967.38 L5053.59 -12967.78 L5060.99 -12968.18 L5068.19 -12968.78 L5074.99 -12969.18 L5081.59 -12969.38 L5086.79 -12969.58 L5091.79 -12969.98 L5095.59 -12970.18 L5099.59 -12970.38 L5102.19 -12970.58 L5105.99 -12970.78 L5108.59 -12970.78 L5112.39 -12970.78 L5114.79 -12970.78 L5118.39 -12970.78 L5120.79 -12970.78 L5124.59 -12970.98 L5127.19 -12971.18 L5130.99 -12971.38 L5133.59 -12971.58 L5137.39 -12971.78 L5139.79 -12971.78 L5143.59 -12971.78 L5146.19 -12971.78 L5149.99 -12971.98 L5152.59 -12972.18 L5156.39 -12972.38 L5158.79 -12972.58 L5162.39 -12972.78 L5164.79 -12972.78 L5168.59 -12972.78 L5171.19 -12972.78 L5175.19 -12972.98 L5177.99 -12973.18 L5181.99 -12973.38 L5184.59 -12973.58 L5188.39 -12973.78 L5190.79 -12973.78 L5194.59 -12973.78 L5197.19 -12973.78 L5201.19 -12973.78 L5203.99 -12973.78 L5207.99 -12973.78 L5210.59 -12973.78 L5214.19 -12973.78 L5216.39 -12973.78 L5219.79 -12973.78 L5221.99 -12973.78 L5225.39 -12973.98 L5227.79 -12974.18 L5231.39 -12974.38 L5233.79 -12974.58 L5237.59 -12974.78 L5240.19 -12974.78 L5243.99 -12974.98 L5246.59 -12975.18 L5250.19 -12975.38 L5252.39 -12975.58 L5255.79 -12975.78 L5257.99 -12975.78 L5261.19 -12975.78 L5263.39 -12975.78 L5266.79 -12975.78 L5268.99 -12975.78 L5272.19 -12975.98 L5274.39 -12976.18 L5277.79 -12976.38 L5279.99 -12976.58 L5283.19 -12976.78 L5285.39 -12976.78 L5288.59 -12976.98 L5290.59 -12977.18 L5293.59 -12977.38 L5295.59 -12977.58 L5298.79 -12977.78 L5300.99 -12977.78 L5304.19 -12977.78 L5306.39 -12977.78 L5309.59 -12977.78 L5311.59 -12977.78 L5314.39 -12977.98 L5316.19 -12978.18 L5318.79 -12978.38 L5320.39 -12978.58 L5322.59 -12978.78 L5323.99 -12978.78 L5326.19 -12978.78 L5327.59 -12978.78 L5329.79 -12978.78 L5331.39 -12978.78 L5333.79 -12978.98 L5335.39 -12979.18 L5337.79 -12979.38 L5339.39 -12979.58 L5341.59 -12979.78 L5342.99 -12979.78 L5344.99 -12979.78 L5346.19 -12979.78 L5347.99 -12979.78 L5349.19 -12979.78 L5350.99 -12979.78 L5352.19 -12979.78 L5353.79 -12979.78 L5354.79 -12979.78 L5356.19 -12979.78 L5356.99 -12979.78 L5357.99 -12979.78 L5358.59 -12979.78 L5359.39 -12979.78 L5359.79 -12979.78 L5360.39 -12979.78 L5360.79 -12979.78 L5361.19 -12979.78 L5361.59 -12979.78 L5361.99 -12979.78 L5362.19 -12979.78 L5362.39 -12979.78 L5362.59 -12979.78 L5362.59 -12979.78 L5362.79 -12979.78 L5363.19 -12979.78 L5363.79 -12979.78 L5364.39 -12979.58 L5364.99 -12979.18 L5365.39 -12978.58 L5365.59 -12977.58 L5365.39 -12976.38 L5365.19 -12974.98 L5364.79 -12973.38 L5364.39 -12971.78 L5363.99 -12970.58 L5363.59 -12969.38 L5363.19 -12968.58 L5362.79 -12968.18 L5362.39 -12967.98 L5361.99 -12967.78 L5361.59 -12967.78 L5361.19 -12967.78 L5360.99 -12967.98 L5360.79 -12968.18 L5360.39 -12968.58 L5360.19 -12968.98 L5359.99 -12969.38 L5359.39 -12969.78 L5358.79 -12970.18 L5358.19 -12970.38 L5357.59 -12970.58 L5356.59 -12970.78 L5355.99 -12970.78 L5354.79 -12970.78 L5353.79 -12970.78 L5352.19 -12970.78 L5350.99 -12970.78 L5348.79 -12970.78 L5347.19 -12970.78 L5344.59 -12970.78 L5342.59 -12970.78 L5339.79 -12970.78 L5337.99 -12970.78 " style="fill: rgba(0, 0, 0, 0); stroke-width: 2; stroke-linecap: round; stroke-linejoin: round;" data-mut=""/><path class="" stroke="rgba(100, 160, 125, 1)" data-hint="freehand" id="qigenf9a" d="M 5216.59 -12965.78 L5216.59 -12965.78 L5216.26 -12965.45 L5216.09 -12965.28 L5215.79 -12965.18 L5215.39 -12964.98 L5214.99 -12964.58 L5214.79 -12964.38 L5214.99 -12964.18 L5215.39 -12963.98 L5215.99 -12963.78 L5216.99 -12963.98 L5218.19 -12964.58 L5219.19 -12965.38 L5220.19 -12966.58 L5220.79 -12967.98 L5220.79 -12969.38 L5220.19 -12970.18 L5219.19 -12970.38 L5217.99 -12969.78 L5217.19 -12968.58 L5216.79 -12966.98 L5217.19 -12965.58 L5218.19 -12964.98 L5219.59 -12964.98 L5220.79 -12965.78 L5221.79 -12967.18 L5222.19 -12968.78 L5221.79 -12969.78 L5220.99 -12970.18 L5219.99 -12969.78 L5218.99 -12968.58 L5218.39 -12966.98 L5218.59 -12965.58 L5219.19 -12964.58 L5220.19 -12964.18 L5221.19 -12964.58 L5221.79 -12965.18 L5221.79 -12965.78 L5221.39 -12966.18 L5220.59 -12966.38 L5219.59 -12966.18 L5218.59 -12966.18 L5217.79 -12966.38 L5216.99 -12967.18 L5216.39 -12968.38 L5216.19 -12969.98 L5216.39 -12971.78 L5217.19 -12973.98 L5218.59 -12976.18 L5220.59 -12978.18 L5223.19 -12980.18 L5226.19 -12981.78 L5229.19 -12982.98 L5231.79 -12983.78 L5234.59 -12984.38 L5236.59 -12984.58 L5238.79 -12984.78 L5240.39 -12984.78 L5242.59 -12984.38 L5243.99 -12983.98 L5246.19 -12983.18 L5247.59 -12982.38 L5249.79 -12980.98 L5251.39 -12979.98 L5253.59 -12978.18 L5254.99 -12976.78 L5256.79 -12974.58 L5257.79 -12972.98 L5258.99 -12970.58 L5259.79 -12967.98 L5260.59 -12964.58 L5260.99 -12961.18 L5260.99 -12956.98 L5259.99 -12952.78 L5257.79 -12949.18 L5254.39 -12946.18 L5250.99 -12943.98 L5246.79 -12942.58 L5243.39 -12941.98 L5239.79 -12941.78 L5237.39 -12941.78 L5233.79 -12941.78 L5231.39 -12941.78 L5227.79 -12942.18 L5225.39 -12942.58 L5221.99 -12943.38 L5219.79 -12944.18 L5216.59 -12945.58 L5214.59 -12946.58 L5211.59 -12948.18 L5209.59 -12949.38 L5206.79 -12951.38 L5204.99 -12952.78 L5202.59 -12954.78 L5200.79 -12956.78 L5198.79 -12959.58 L5197.39 -12962.38 L5195.99 -12966.18 L5195.39 -12970.38 L5195.59 -12975.18 L5196.79 -12980.38 L5198.99 -12985.78 L5201.19 -12990.18 L5203.99 -12994.38 L5206.39 -12997.38 L5209.19 -12999.78 L5211.19 -13001.18 L5214.39 -13002.98 L5216.79 -13003.98 L5220.39 -13005.38 L5222.79 -13006.18 L5226.39 -13006.98 L5228.79 -13007.38 L5232.39 -13007.78 L5234.79 -13007.78 L5238.39 -13007.78 L5240.79 -13007.78 L5244.59 -13007.38 L5247.19 -13006.98 L5250.99 -13005.98 L5253.59 -13004.98 L5257.59 -13003.38 L5260.19 -13002.18 L5263.99 -13000.38 L5266.59 -12999.18 L5270.19 -12997.38 L5272.39 -12996.18 L5275.59 -12994.18 L5277.59 -12992.78 L5280.39 -12990.38 L5282.19 -12988.58 L5284.39 -12985.58 L5285.59 -12983.38 L5287.39 -12980.18 L5288.39 -12977.98 L5289.39 -12974.78 L5289.99 -12971.58 L5290.19 -12967.18 L5289.19 -12962.78 L5287.59 -12957.58 L5284.79 -12952.18 L5281.99 -12947.98 L5278.19 -12944.18 L5274.99 -12941.38 L5270.99 -12938.58 L5268.19 -12936.98 L5263.59 -12934.58 L5260.39 -12932.98 L5255.19 -12930.78 L5251.39 -12929.38 L5245.79 -12927.58 L5241.99 -12926.58 L5236.39 -12925.38 L5232.79 -12924.78 L5227.39 -12924.18 L5223.79 -12923.98 L5218.39 -12923.98 L5214.79 -12924.18 L5209.39 -12924.78 L5205.79 -12925.38 L5200.39 -12926.38 L5196.79 -12927.18 L5191.79 -12928.58 L5188.59 -12929.58 L5183.99 -12931.58 L5179.99 -12934.18 L5174.99 -12937.78 L5170.79 -12941.98 L5166.19 -12947.38 L5162.99 -12951.78 L5160.79 -12956.38 L5159.59 -12959.98 L5158.99 -12963.98 L5158.79 -12966.78 L5158.79 -12971.18 L5158.99 -12974.38 L5159.59 -12979.38 L5160.19 -12982.78 L5161.59 -12987.98 L5162.79 -12991.58 L5164.99 -12996.78 L5166.79 -13000.18 L5169.59 -13004.98 L5171.59 -13007.98 L5174.79 -13011.98 L5176.99 -13014.38 L5180.59 -13017.98 L5183.19 -13020.18 L5187.19 -13023.18 L5189.99 -13025.18 L5194.39 -13028.38 L5197.39 -13030.38 L5202.19 -13033.38 L5205.59 -13035.58 L5210.79 -13038.38 L5214.39 -13039.98 L5219.59 -13041.78 L5222.99 -13042.58 L5228.19 -13043.38 L5231.59 -13043.58 L5236.79 -13043.78 L5240.39 -13043.78 L5245.79 -13043.58 L5249.39 -13043.38 L5254.59 -13042.38 L5257.99 -13041.38 L5262.99 -13039.58 L5266.19 -13037.98 L5270.99 -13035.38 L5274.19 -13033.58 L5278.99 -13030.58 L5282.19 -13028.38 L5286.59 -13024.98 L5289.39 -13022.58 L5292.99 -13018.98 L5294.99 -13016.58 L5297.99 -13012.58 L5299.79 -13009.78 L5302.39 -13005.78 L5304.19 -13002.98 L5306.59 -12998.78 L5307.99 -12996.18 L5309.99 -12992.18 L5311.19 -12989.38 L5312.59 -12984.78 L5313.39 -12981.58 L5314.19 -12976.58 L5313.99 -12970.98 L5313.19 -12963.78 L5311.19 -12956.98 L5309.19 -12950.18 L5305.99 -12943.78 L5303.19 -12939.38 L5299.19 -12935.38 L5296.19 -12932.78 L5290.99 -12928.98 L5286.99 -12926.58 L5280.79 -12923.18 L5276.39 -12920.98 L5269.39 -12918.18 L5264.59 -12916.58 L5256.99 -12914.38 L5251.59 -12913.18 L5243.19 -12911.58 L5237.39 -12910.58 L5229.19 -12909.38 L5223.79 -12908.78 L5215.79 -12908.38 L5210.79 -12908.38 L5203.19 -12908.78 L5197.99 -12909.38 L5189.99 -12910.78 L5181.99 -12913.18 L5172.19 -12917.18 L5163.59 -12922.58 L5153.79 -12929.98 L5146.79 -12936.58 L5141.59 -12943.98 L5138.19 -12949.78 L5135.39 -12956.18 L5133.79 -12960.58 L5131.79 -12967.58 L5130.59 -12972.58 L5128.99 -12980.18 L5128.19 -12985.38 L5127.39 -12992.78 L5126.99 -12997.58 L5126.99 -13004.38 L5127.39 -13008.58 L5127.99 -13014.38 L5128.59 -13017.98 L5129.79 -13023.58 L5130.59 -13027.18 L5132.39 -13032.58 L5133.99 -13036.38 L5136.59 -13041.98 L5138.59 -13045.58 L5141.79 -13050.58 L5143.99 -13053.78 L5147.59 -13057.78 L5150.19 -13059.98 L5154.19 -13062.98 L5156.99 -13064.58 L5161.19 -13066.98 L5163.99 -13068.58 L5168.19 -13070.78 L5170.99 -13072.18 L5175.19 -13073.98 L5177.99 -13074.98 L5182.39 -13076.38 L5185.39 -13077.18 L5189.99 -13078.38 L5193.19 -13079.18 L5197.79 -13080.18 L5200.79 -13080.78 L5205.19 -13081.38 L5207.99 -13081.58 L5211.99 -13081.78 L5214.59 -13081.78 L5218.39 -13081.78 L5220.79 -13081.78 L5224.39 -13081.78 L5226.79 -13081.78 L5230.39 -13081.78 L5232.79 -13081.78 L5236.59 -13081.58 L5239.19 -13081.38 L5243.19 -13080.98 L5245.99 -13080.58 L5249.79 -13080.18 L5252.19 -13079.98 L5255.59 -13079.38 L5257.59 -13078.98 L5260.59 -13078.18 L5262.59 -13077.38 L5265.79 -13076.18 L5267.99 -13075.38 L5271.59 -13074.18 L5274.19 -13073.38 L5277.79 -13072.38 L5280.19 -13071.78 L5283.59 -13070.78 L5285.59 -13070.18 L5288.39 -13068.98 L5290.19 -13067.98 L5292.99 -13066.58 L5294.79 -13065.58 L5297.59 -13064.18 L5299.59 -13063.38 L5302.19 -13061.98 L5303.79 -13060.98 L5305.99 -13059.58 L5307.19 -13058.58 L5308.99 -13056.98 L5310.19 -13055.98 L5311.99 -13054.38 L5313.19 -13053.18 L5314.99 -13051.58 L5316.19 -13050.58 L5318.19 -13048.98 L5319.59 -13047.98 L5321.59 -13046.58 L5322.99 -13045.58 L5324.99 -13044.18 L5326.19 -13043.38 L5327.99 -13042.18 L5329.19 -13041.38 L5330.99 -13040.18 L5332.99 -13038.98 L5334.99 -13037.78 L5336.99 -13036.58 L5338.99 -13035.38 L5341.19 -13034.38 L5342.59 -13033.78 L5344.59 -13032.98 L5345.99 -13032.58 L5347.99 -13031.98 L5349.19 -13031.58 L5350.79 -13030.98 L5351.79 -13030.58 L5353.39 -13029.98 L5354.39 -13029.58 L5356.19 -13028.98 L5357.59 -13028.58 L5359.59 -13027.98 L5360.99 -13027.58 L5363.19 -13027.18 L5364.59 -13026.98 L5366.59 -13026.78 L5367.99 -13026.78 L5369.99 -13026.58 L5371.19 -13026.38 L5372.79 -13026.18 L5373.79 -13025.98 L5375.19 -13025.78 L5375.99 -13025.78 L5377.19 -13025.78 L5377.99 -13025.78 L5378.99 -13025.98 L5379.59 -13026.18 L5380.39 -13026.38 L5380.79 -13026.58 L5381.39 -13026.78 L5381.79 -13026.78 L5382.39 -13026.78 L5382.79 -13026.78 L5383.19 -13026.78 L5383.39 -13026.78 L5383.79 -13026.78 L5383.99 -13026.78 L5384.19 -13026.78 L5384.39 -13026.78 " style="fill: rgba(0, 0, 0, 0); stroke-width: 2; stroke-linecap: round; stroke-linejoin: round;" data-mut=""/><path class="" stroke="rgba(75, 120, 94, 1)" data-hint="freehand" id="gjjkr9w9" d="M 4975.59 -12963.78 L4975.59 -12963.78 L4975.26 -12963.78 L4975.09 -12963.78 L4974.99 -12963.98 L4974.79 -12964.18 L4974.99 -12964.58 L4975.39 -12964.98 L4976.39 -12965.58 L4978.59 -12966.18 L4981.99 -12966.98 L4986.59 -12967.58 L4992.19 -12967.98 L4997.59 -12968.18 L5001.19 -12968.38 L5002.79 -12968.38 L5001.79 -12968.18 L4998.79 -12968.18 L4994.39 -12967.98 L4989.79 -12967.38 L4985.59 -12966.58 L4982.19 -12965.98 L4979.99 -12965.18 L4979.39 -12964.58 L4980.39 -12964.18 L4982.79 -12963.98 L4986.59 -12963.78 L4991.19 -12963.78 L4995.79 -12963.98 L4999.99 -12964.18 L5002.99 -12964.38 L5004.39 -12964.58 L5003.79 -12964.78 L5001.59 -12964.78 L4997.79 -12964.58 L4992.99 -12964.18 L4987.79 -12963.58 L4982.79 -12962.98 L4978.39 -12962.18 L4974.99 -12961.38 L4973.19 -12960.78 L4972.79 -12960.58 L4973.79 -12960.38 L4975.99 -12960.38 L4978.99 -12960.58 L4982.59 -12960.98 L4986.39 -12961.18 L4990.39 -12961.38 L4994.39 -12961.58 L4998.59 -12961.78 L5002.59 -12961.78 L5006.79 -12961.78 L5010.99 -12961.78 L5015.39 -12961.78 L5019.79 -12961.98 L5024.59 -12962.18 L5029.59 -12962.58 L5034.79 -12962.98 L5040.19 -12963.38 L5045.79 -12963.78 L5051.19 -12964.18 L5056.59 -12964.38 L5061.99 -12964.58 L5066.99 -12964.78 L5071.99 -12964.78 L5075.99 -12964.78 L5079.79 -12964.78 L5082.59 -12964.78 L5085.59 -12964.98 L5087.59 -12965.18 L5090.59 -12965.38 L5092.59 -12965.58 L5095.59 -12965.78 L5097.59 -12965.78 L5100.39 -12965.98 L5102.19 -12966.18 L5104.79 -12966.38 L5106.39 -12966.58 L5108.79 -12966.98 L5110.39 -12967.18 L5112.99 -12967.38 L5114.79 -12967.58 L5117.39 -12967.78 L5119.19 -12967.78 L5121.79 -12967.78 L5123.39 -12967.78 L5125.79 -12967.78 L5127.39 -12967.78 L5129.79 -12967.78 L5131.39 -12967.78 L5133.79 -12967.78 L5135.39 -12967.78 L5137.99 -12967.78 L5139.79 -12967.78 L5142.39 -12967.78 L5144.19 -12967.78 L5146.79 -12967.98 L5148.39 -12968.18 L5150.79 -12968.38 L5152.39 -12968.58 L5154.79 -12968.78 L5156.39 -12968.78 L5158.79 -12968.78 L5160.39 -12968.78 L5162.59 -12968.78 L5163.99 -12968.78 L5165.99 -12968.78 L5167.19 -12968.78 L5168.99 -12968.98 L5170.19 -12969.18 L5171.99 -12969.38 L5173.19 -12969.58 L5175.19 -12969.78 L5176.59 -12969.78 L5178.59 -12969.78 L5179.99 -12969.78 L5181.99 -12969.78 L5183.19 -12969.78 L5184.99 -12969.78 L5186.19 -12969.78 L5187.99 -12969.78 L5189.19 -12969.78 L5190.99 -12969.78 L5192.19 -12969.78 L5193.99 -12969.78 L5195.19 -12969.78 L5196.99 -12969.78 L5198.19 -12969.78 L5199.79 -12969.78 L5200.79 -12969.78 L5202.39 -12969.78 L5203.39 -12969.78 L5204.79 -12969.78 L5205.79 -12969.78 L5207.39 -12969.78 L5208.39 -12969.78 L5209.99 -12969.78 L5211.19 -12969.78 L5212.99 -12969.78 L5214.19 -12969.78 L5215.99 -12969.78 L5217.19 -12969.78 L5218.99 -12969.78 L5220.19 -12969.78 L5221.99 -12969.98 L5223.19 -12970.18 L5225.19 -12970.38 L5226.59 -12970.58 L5228.59 -12970.78 L5229.99 -12970.78 L5232.19 -12970.78 L5233.59 -12970.78 L5235.79 -12970.78 L5237.39 -12970.78 L5239.59 -12970.78 L5240.99 -12970.78 L5243.19 -12970.78 L5244.59 -12970.78 L5246.59 -12970.98 L5247.99 -12971.18 L5249.99 -12971.38 L5251.19 -12971.58 L5253.19 -12971.78 L5254.59 -12971.78 L5256.59 -12971.78 L5257.99 -12971.78 L5260.19 -12971.78 L5261.59 -12971.78 L5263.59 -12971.98 L5264.99 -12972.18 L5267.19 -12972.38 L5268.59 -12972.58 L5270.59 -12972.78 L5271.99 -12972.78 L5273.99 -12972.78 L5275.19 -12972.78 L5276.99 -12972.78 L5278.19 -12972.78 L5279.99 -12972.78 L5281.19 -12972.78 L5282.99 -12972.78 L5284.19 -12972.78 L5285.99 -12972.78 L5287.19 -12972.78 L5288.99 -12972.78 L5290.19 -12972.78 L5291.79 -12972.98 L5292.79 -12973.18 L5294.39 -12973.38 L5295.39 -12973.58 L5297.19 -12973.78 L5298.59 -12973.78 L5300.59 -12973.78 L5301.99 -12973.78 L5303.99 -12973.78 L5305.19 -12973.78 L5306.99 -12973.78 L5308.19 -12973.78 L5309.99 -12973.98 L5311.19 -12974.18 L5312.99 -12974.38 L5314.19 -12974.58 L5316.19 -12974.78 L5317.59 -12974.78 L5319.59 -12974.78 L5320.99 -12974.78 L5322.99 -12974.78 L5324.19 -12974.78 L5325.99 -12974.78 L5327.19 -12974.78 L5328.99 -12974.98 L5330.19 -12975.18 L5331.99 -12975.38 L5333.19 -12975.58 L5334.99 -12975.78 L5336.19 -12975.78 L5337.79 -12975.78 L5338.79 -12975.78 L5340.39 -12975.78 L5341.39 -12975.78 L5342.79 -12975.78 L5343.79 -12975.78 L5345.19 -12975.98 L5345.99 -12976.18 L5347.19 -12976.38 L5347.99 -12976.58 L5349.39 -12976.78 L5350.39 -12976.78 L5351.99 -12976.78 L5353.19 -12976.78 L5354.99 -12976.78 L5356.19 -12976.78 L5357.59 -12976.78 L5358.39 -12976.78 L5359.19 -12976.78 L5359.39 -12976.78 L5359.59 -12976.78 L5359.59 -12976.78 L5359.59 -12976.78 L5359.59 -12976.78 L5359.59 -12976.78 L5359.59 -12976.78 L5359.39 -12976.78 L5359.19 -12976.78 " style="fill: rgba(0, 0, 0, 0); stroke-width: 2; stroke-linecap: round; stroke-linejoin: round;" data-mut=""/><path class="" stroke="rgba(255, 119, 168, 1)" data-hint="freehand" id="kp6j4bew" d="M 5002.59 -12814.78 L5003.59 -12815.78 L5004.92 -12817.45 " style="fill: rgba(0, 0, 0, 0); stroke-width: 2; stroke-linecap: round; stroke-linejoin: round;"/><path class="" stroke="rgba(255, 119, 168, 1)" data-hint="freehand" id="k4b8lzg1" d="M 5005.59 -12819.78 L5003.59 -12817.28 L5002.92 -12816.45 L5001.84 -12815.03 L5001.19 -12814.18 L4999.59 -12812.18 L4998.79 -12811.18 L4998.19 -12810.58 L4998.19 -12810.78 L4998.59 -12811.58 L4999.19 -12812.58 L5000.39 -12814.78 L5001.39 -12816.58 L5002.79 -12819.18 L5004.19 -12821.78 L5004.99 -12823.78 L5004.59 -12823.58 L5003.79 -12822.38 L5002.39 -12819.58 L5000.79 -12815.98 L5000.19 -12813.38 L5000.79 -12812.58 L5002.39 -12813.58 L5004.59 -12816.18 L5006.39 -12819.18 L5007.39 -12821.38 L5007.19 -12821.98 L5006.19 -12820.78 L5004.79 -12818.18 " style="fill: rgba(0, 0, 0, 0); stroke-width: 2; stroke-linecap: round; stroke-linejoin: round;"/><path class="" stroke="rgba(255, 119, 168, 1)" data-hint="freehand" id="f0n99msx" d="M 5018.59 -12813.78 L5018.09 -12813.78 L5017.26 -12813.45 L5016.84 -12812.53 L5016.39 -12811.38 L5015.59 -12809.38 L5014.99 -12807.18 L5014.79 -12805.18 L5014.99 -12803.98 L5015.39 -12803.38 L5016.19 -12803.98 L5017.19 -12805.78 L5018.39 -12808.38 L5019.19 -12811.18 L5019.79 -12813.58 L5019.59 -12814.18 L5018.99 -12812.58 L5017.99 -12809.38 L5016.99 -12805.58 L5016.19 -12802.78 L5015.99 -12801.98 L5015.99 -12803.38 L5016.19 -12806.38 L5016.19 -12809.78 L5016.19 -12812.18 L5015.99 -12812.98 L5015.79 -12811.78 L5015.59 -12809.38 L5015.59 -12806.58 L5015.79 -12804.58 L5016.19 -12804.38 L5016.59 -12806.38 L5016.59 -12809.58 L5016.19 -12813.18 L5014.99 -12815.58 L5013.39 -12815.78 L5011.79 -12813.78 L5010.79 -12810.38 L5010.59 -12806.78 L5011.59 -12804.58 L5012.79 -12803.78 " style="fill: rgba(0, 0, 0, 0); stroke-width: 2; stroke-linecap: round; stroke-linejoin: round;"/></g></svg>